<svg xmlns="http://www.w3.org/2000/svg" viewBox="0 0 24 24" fill="none" stroke="#8534F3" stroke-width="2" stroke-linecap="round" stroke-linejoin="round">
  <path stroke="none" d="M0 0h24v24H0z" fill="none"/>
  <path d="M4 18v-5.5c0 -.667 .167 -1.333 .5 -2" />
  <path d="M12 7.5c0 -1 -.01 -4.07 -4 -3.5c-3.5 .5 -4 2.5 -4 3.5c0 1.5 0 4 3 4c4 0 5 -2.5 5 -4" />
  <path d="M4 12c-1.333 .667 -2 1.333 -2 2c0 1 0 3 1.5 4c3 2 6.5 3 8.5 3s5.499 -1 8.5 -3c1.5 -1 1.5 -3 1.5 -4c0 -.667 -.667 -1.333 -2 -2" />
  <path d="M20 18v-5.5c0 -.667 -.167 -1.333 -.5 -2" />
  <path d="M12 7.5c0 -1 .01 -4.07 4 -3.5c3.5 .5 4 2.5 4 3.5c0 1.5 0 4 -3 4c-4 0 -5 -2.5 -5 -4" />
  <path d="M12 12v-1" />
</svg>
